<svg width="1505.8823529411766" height="864" xmlns="http://www.w3.org/2000/svg" version="1.1"><circle cx="15.058823529411764" cy="15.058823529411764" r="15.058823529411764" fill="blue" />
<circle cx="15.058823529411764" cy="45.17647058823529" r="15.058823529411764" fill="blue" />
<line x1="30.11764705882353" y1="0" x2="30.11764705882353" y2="864" stroke="black" /><circle cx="45.17647058823529" cy="15.058823529411764" r="15.058823529411764" fill="blue" />
<circle cx="45.17647058823529" cy="45.17647058823529" r="15.058823529411764" fill="blue" />
<line x1="60.23529411764706" y1="0" x2="60.23529411764706" y2="864" stroke="black" /><circle cx="75.29411764705883" cy="15.058823529411764" r="15.058823529411764" fill="blue" />
<line x1="90.35294117647058" y1="0" x2="90.35294117647058" y2="864" stroke="black" /><line x1="120.47058823529412" y1="0" x2="120.47058823529412" y2="864" stroke="black" /><circle cx="135.52941176470588" cy="15.058823529411764" r="15.058823529411764" fill="blue" />
<line x1="150.58823529411765" y1="0" x2="150.58823529411765" y2="864" stroke="black" /><line x1="180.70588235294116" y1="0" x2="180.70588235294116" y2="864" stroke="black" /><line x1="210.8235294117647" y1="0" x2="210.8235294117647" y2="864" stroke="black" /><line x1="240.94117647058823" y1="0" x2="240.94117647058823" y2="864" stroke="black" /><circle cx="256.0" cy="15.058823529411764" r="15.058823529411764" fill="blue" />
<circle cx="256.0" cy="45.17647058823529" r="15.058823529411764" fill="blue" />
<line x1="271.05882352941177" y1="0" x2="271.05882352941177" y2="864" stroke="black" /><circle cx="286.11764705882354" cy="15.058823529411764" r="15.058823529411764" fill="blue" />
<line x1="301.1764705882353" y1="0" x2="301.1764705882353" y2="864" stroke="black" /><line x1="331.29411764705884" y1="0" x2="331.29411764705884" y2="864" stroke="black" /><circle cx="346.3529411764706" cy="15.058823529411764" r="15.058823529411764" fill="blue" />
<circle cx="346.3529411764706" cy="45.17647058823529" r="15.058823529411764" fill="blue" />
<circle cx="346.3529411764706" cy="75.29411764705883" r="15.058823529411764" fill="blue" />
<line x1="361.4117647058823" y1="0" x2="361.4117647058823" y2="864" stroke="black" /><circle cx="376.4705882352941" cy="15.058823529411764" r="15.058823529411764" fill="blue" />
<line x1="391.52941176470586" y1="0" x2="391.52941176470586" y2="864" stroke="black" /><circle cx="406.5882352941176" cy="15.058823529411764" r="15.058823529411764" fill="blue" />
<circle cx="406.5882352941176" cy="45.17647058823529" r="15.058823529411764" fill="blue" />
<circle cx="406.5882352941176" cy="75.29411764705883" r="15.058823529411764" fill="blue" />
<line x1="421.6470588235294" y1="0" x2="421.6470588235294" y2="864" stroke="black" /><circle cx="436.70588235294116" cy="15.058823529411764" r="15.058823529411764" fill="blue" />
<circle cx="436.70588235294116" cy="45.17647058823529" r="15.058823529411764" fill="blue" />
<line x1="451.7647058823529" y1="0" x2="451.7647058823529" y2="864" stroke="black" /><circle cx="466.8235294117647" cy="15.058823529411764" r="15.058823529411764" fill="blue" />
<line x1="481.88235294117646" y1="0" x2="481.88235294117646" y2="864" stroke="black" /><circle cx="496.94117647058823" cy="15.058823529411764" r="15.058823529411764" fill="blue" />
<circle cx="496.94117647058823" cy="45.17647058823529" r="15.058823529411764" fill="blue" />
<line x1="512.0" y1="0" x2="512.0" y2="864" stroke="black" /><circle cx="527.0588235294117" cy="15.058823529411764" r="15.058823529411764" fill="blue" />
<line x1="542.1176470588235" y1="0" x2="542.1176470588235" y2="864" stroke="black" /><circle cx="557.1764705882352" cy="15.058823529411764" r="15.058823529411764" fill="blue" />
<line x1="572.2352941176471" y1="0" x2="572.2352941176471" y2="864" stroke="black" /><line x1="602.3529411764706" y1="0" x2="602.3529411764706" y2="864" stroke="black" /><line x1="632.4705882352941" y1="0" x2="632.4705882352941" y2="864" stroke="black" /><line x1="662.5882352941177" y1="0" x2="662.5882352941177" y2="864" stroke="black" /><line x1="692.7058823529412" y1="0" x2="692.7058823529412" y2="864" stroke="black" /><circle cx="707.7647058823529" cy="15.058823529411764" r="15.058823529411764" fill="blue" />
<circle cx="707.7647058823529" cy="45.17647058823529" r="15.058823529411764" fill="blue" />
<circle cx="707.7647058823529" cy="75.29411764705883" r="15.058823529411764" fill="blue" />
<line x1="722.8235294117646" y1="0" x2="722.8235294117646" y2="864" stroke="black" /><line x1="752.9411764705882" y1="0" x2="752.9411764705882" y2="864" stroke="black" /><circle cx="767.9999999999999" cy="15.058823529411764" r="15.058823529411764" fill="blue" />
<circle cx="767.9999999999999" cy="45.17647058823529" r="15.058823529411764" fill="blue" />
<line x1="783.0588235294117" y1="0" x2="783.0588235294117" y2="864" stroke="black" /><circle cx="798.1176470588234" cy="15.058823529411764" r="15.058823529411764" fill="blue" />
<line x1="813.1764705882352" y1="0" x2="813.1764705882352" y2="864" stroke="black" /><line x1="843.2941176470588" y1="0" x2="843.2941176470588" y2="864" stroke="black" /><circle cx="858.3529411764705" cy="15.058823529411764" r="15.058823529411764" fill="blue" />
<circle cx="858.3529411764705" cy="45.17647058823529" r="15.058823529411764" fill="blue" />
<line x1="873.4117647058823" y1="0" x2="873.4117647058823" y2="864" stroke="black" /><line x1="903.5294117647059" y1="0" x2="903.5294117647059" y2="864" stroke="black" /><circle cx="918.5882352941176" cy="15.058823529411764" r="15.058823529411764" fill="blue" />
<circle cx="918.5882352941176" cy="45.17647058823529" r="15.058823529411764" fill="blue" />
<line x1="933.6470588235294" y1="0" x2="933.6470588235294" y2="864" stroke="black" /><circle cx="948.7058823529411" cy="15.058823529411764" r="15.058823529411764" fill="blue" />
<circle cx="948.7058823529411" cy="45.17647058823529" r="15.058823529411764" fill="blue" />
<line x1="963.7647058823529" y1="0" x2="963.7647058823529" y2="864" stroke="black" /><line x1="993.8823529411765" y1="0" x2="993.8823529411765" y2="864" stroke="black" /><line x1="1024.0" y1="0" x2="1024.0" y2="864" stroke="black" /><circle cx="1039.0588235294117" cy="15.058823529411764" r="15.058823529411764" fill="blue" />
<line x1="1054.1176470588234" y1="0" x2="1054.1176470588234" y2="864" stroke="black" /><circle cx="1069.1764705882351" cy="15.058823529411764" r="15.058823529411764" fill="blue" />
<line x1="1084.235294117647" y1="0" x2="1084.235294117647" y2="864" stroke="black" /><circle cx="1099.2941176470588" cy="15.058823529411764" r="15.058823529411764" fill="blue" />
<line x1="1114.3529411764705" y1="0" x2="1114.3529411764705" y2="864" stroke="black" /><circle cx="1129.4117647058822" cy="15.058823529411764" r="15.058823529411764" fill="blue" />
<circle cx="1129.4117647058822" cy="45.17647058823529" r="15.058823529411764" fill="blue" />
<line x1="1144.4705882352941" y1="0" x2="1144.4705882352941" y2="864" stroke="black" /><circle cx="1159.5294117647059" cy="15.058823529411764" r="15.058823529411764" fill="blue" />
<circle cx="1159.5294117647059" cy="45.17647058823529" r="15.058823529411764" fill="blue" />
<line x1="1174.5882352941176" y1="0" x2="1174.5882352941176" y2="864" stroke="black" /><line x1="1204.7058823529412" y1="0" x2="1204.7058823529412" y2="864" stroke="black" /><circle cx="1219.764705882353" cy="15.058823529411764" r="15.058823529411764" fill="blue" />
<circle cx="1219.764705882353" cy="45.17647058823529" r="15.058823529411764" fill="blue" />
<line x1="1234.8235294117646" y1="0" x2="1234.8235294117646" y2="864" stroke="black" /><circle cx="1249.8823529411764" cy="15.058823529411764" r="15.058823529411764" fill="blue" />
<circle cx="1249.8823529411764" cy="45.17647058823529" r="15.058823529411764" fill="blue" />
<line x1="1264.9411764705883" y1="0" x2="1264.9411764705883" y2="864" stroke="black" /><line x1="1295.0588235294117" y1="0" x2="1295.0588235294117" y2="864" stroke="black" /><circle cx="1310.1176470588234" cy="15.058823529411764" r="15.058823529411764" fill="blue" />
<circle cx="1310.1176470588234" cy="45.17647058823529" r="15.058823529411764" fill="blue" />
<circle cx="1310.1176470588234" cy="75.29411764705883" r="15.058823529411764" fill="blue" />
<line x1="1325.1764705882354" y1="0" x2="1325.1764705882354" y2="864" stroke="black" /><line x1="1355.2941176470588" y1="0" x2="1355.2941176470588" y2="864" stroke="black" /><circle cx="1370.3529411764705" cy="15.058823529411764" r="15.058823529411764" fill="blue" />
<line x1="1385.4117647058824" y1="0" x2="1385.4117647058824" y2="864" stroke="black" /><line x1="1415.5294117647059" y1="0" x2="1415.5294117647059" y2="864" stroke="black" /><line x1="1445.6470588235293" y1="0" x2="1445.6470588235293" y2="864" stroke="black" /><line x1="1475.764705882353" y1="0" x2="1475.764705882353" y2="864" stroke="black" /><line x1="1505.8823529411764" y1="0" x2="1505.8823529411764" y2="864" stroke="black" /></svg>